# xmcd
#
# Track frame offsets:
#	150
#	15953
#	29423
#	39962
#	52396
#	65836
#	81625
#	97314
#	110938
#	122635
#	137138
#	151375
#	164586
#	179077
#	196469
#	210737
#	224392
#	238468
#
# Disc length: 3342 seconds
#
# Revision: 1
# Processed by: cddbd v1.5.2PL0 Copyright (c) Steve Scherf et al.
# Submitted via: audiograbber 1.83.01
#
DISCID=250d0c12
DTITLE=John Lee Hooker - Masters of Music [Disc 4]
DYEAR=1900
DGENRE=
TTITLE0=Boogie Woogie
TTITLE1=Too much Boogie
TTITLE2=Wand ad Blues
TTITLE3=Mad Man Blues
TTITLE4=Need Somebody
TTITLE5=Black Man Blues
TTITLE6=Hey Baby
TTITLE7=Shake your Boogie
TTITLE8=Pouring down Rain
TTITLE9=Sugar Mama
TTITLE10=Road Trouble
TTITLE11=I Need Lovin
TTITLE12=Four Woman in my Life
TTITLE13=Leavin Chicago
TTITLE14=Grinder Man
TTITLE15=Morning Blues
TTITLE16=Dreaming Blues
TTITLE17=House Rent Boogie
EXTD=
EXTT0=
EXTT1=
EXTT2=
EXTT3=
EXTT4=
EXTT5=
EXTT6=
EXTT7=
EXTT8=
EXTT9=
EXTT10=
EXTT11=
EXTT12=
EXTT13=
EXTT14=
EXTT15=
EXTT16=
EXTT17=
PLAYORDER=
